<?xml version="1.0" encoding="utf-8"?>
<!-- Svg Vector Icons : http://www.onlinewebfonts.com/icon -->
<!DOCTYPE svg PUBLIC "-//W3C//DTD SVG 1.1//EN" "http://www.w3.org/Graphics/SVG/1.1/DTD/svg11.dtd">
<svg version="1.1" xmlns="http://www.w3.org/2000/svg" xmlns:xlink="http://www.w3.org/1999/xlink" x="0px" y="0px" viewBox="0 0 1000 1000" enable-background="new 0 0 1000 1000" xml:space="preserve">
<metadata> Svg Vector Icons : http://www.onlinewebfonts.com/icon </metadata>
<g><g transform="translate(0.000000,512.000000) scale(0.100000,-0.100000)"><path d="M2146.8,5013.5c-15.3-3.8-93.8-17.2-172.4-28.7C1240.9,4866,568.7,4322.1,291,3619.3c-325.6-817.8-153.2-1740.8,444.3-2380.5c363.9-390.7,879-641.6,1430.6-699c440.5-44,923.1,61.3,1325.3,289.2c136,78.5,178.1,93.8,191.5,72.8c51.7-76.6,151.3-291.1,187.7-407.9c51.7-168.5,57.5-494.1,9.6-668.4c-30.6-116.8-155.1-394.5-206.8-459.6c-26.8-36.4-30.6-36.4-120.7,23c-641.6,409.8-1482.3,459.6-2183.2,126.4C1150.9-588.3,946-735.7,758.3-923.4c-787.1-789-879-2033.9-218.3-2920.6c467.3-626.3,1219.9-965.2,1995.5-898.2c1085.9,93.8,1932.4,932.7,2045.4,2028.1c44,440.5-63.2,930.8-289.2,1321.4c-51.7,91.9-95.8,172.4-95.8,180c0,21.1,293,158.9,430.9,203c170.4,53.6,474.9,59.4,660.7,11.5c122.6-30.7,396.4-153.2,467.3-208.8c36.4-26.8,36.4-30.6-23-120.6c-32.6-51.7-93.8-168.5-136-256.6c-511.3-1089.7-72.8-2382.4,994-2937.8c733.5-379.2,1576.1-340.9,2263.7,107.3c580.3,379.2,949.9,995.9,1009.3,1683.4c105.3,1235.3-783.3,2302-2028.1,2432.2c-450,47.9-955.7-67-1359.7-308.3c-72.8-42.1-136-76.6-141.7-76.6c-21.1,0-160.9,296.8-203,430.9c-53.6,170.4-59.4,474.9-11.5,660.7c34.5,134.1,174.3,448.1,216.4,480.7c17.2,17.2,47.9,7.7,114.9-36.4c377.3-241.3,850.3-365.8,1308-342.8c584.1,28.7,1076.3,245.1,1484.2,655c610.9,612.8,813.9,1493.8,534.3,2323c-220.2,656.9-804.4,1218-1468.9,1409.5c-252.8,72.8-386.9,91.9-655,91.9c-1160.6,0-2102.8-854.2-2231.1-2022.4c-49.8-436.6,59.4-942.2,289.2-1340.6c51.7-90,93.9-168.5,93.9-174.3c0-19.2-302.6-160.9-430.9-201.1c-168.5-51.7-494.1-57.5-668.4-9.6c-116.8,30.6-394.5,155.1-459.6,206.8c-36.4,26.8-36.4,30.6,23,120.7c358.1,559.2,444.3,1300.4,226,1938.1c-270,787.1-963.3,1363.6-1792.6,1490C2543.2,5019.2,2231,5028.8,2146.8,5013.5z M2878.4,4768.3c199.2-51.7,440.5-157,610.9-266.2c482.6-310.2,835-856.1,919.3-1430.6c32.6-231.7,13.4-578.4-47.9-815.8c-49.8-193.4-201.1-528.6-285.4-630.1l-44.1-53.6l-229.8,172.4c-254.7,191.5-467.3,373.4-792.9,676l-220.2,204.9V2790l1.9,164.7l132.1,107.3c398.3,321.7,660.7,651.1,733.5,913.5c26.8,93.8,1.9,166.6-55.5,166.6c-162.8,0-547.7-348.6-829.2-752.6c-130.2-185.8-180-241.3-201.1-231.7c-293,128.3-614.8-59.4-620.5-362c0-53.6,5.7-116.8,11.5-139.8c11.5-32.5-17.2-65.1-176.2-195.3c-419.4-348.6-710.5-741.2-710.5-961.4c0-97.7,59.4-109.2,201.1-40.2c201.1,99.6,471.1,375.4,716.3,729.7c162.8,237.5,136,218.3,254.7,181.9c63.2-17.2,130.2-24.9,180-17.2l78.5,11.5l270-294.9c270-293,559.2-641.6,710.5-858l80.4-114.9l-91.9-57.5c-827.3-530.5-1947.7-383-2612.2,340.9c-737.3,806.3-723.9,2033.9,28.7,2815.2c249,258.5,499.8,415.6,835,528.6c264.3,88.1,396.4,107.3,708.6,97.7C2631.3,4818.1,2736.6,4804.7,2878.4,4768.3z M7873,4793.2c794.8-90,1461.2-620.5,1721.7-1367.4c285.3-815.8,23-1738.9-649.2-2277.1c-170.4-136-459.6-294.9-651.1-354.3c-363.9-116.8-790.9-130.2-1158.6-34.5c-193.4,49.8-528.6,201.1-630.1,285.4l-53.6,44.1l172.4,229.8c191.5,254.7,390.7,488.4,683.7,802.4l197.3,210.7H7670l164.7-1.9l107.2-132.1c325.6-402.2,653.1-664.6,923.1-735.4c241.3-65.1,193.4,155.1-101.5,475c-128.3,137.9-319.8,294.9-563.1,461.5c-95.8,65.1-174.3,120.6-174.3,122.6c0,0,13.4,36.4,28.7,78.5c76.6,212.6-19.2,432.8-237.5,545.8c-51.7,26.8-197.3,34.5-271.9,13.4c-46-11.5-63.2,3.8-206.9,176.2c-283.4,342.8-563,576.5-804.3,672.2c-189.6,72.8-273.9,40.2-231.7-90c63.2-191.5,350.5-494.1,714.3-750.7c120.6-86.2,229.8-168.5,241.3-181.9c13.4-15.3,11.5-51.7-9.6-118.7c-17.2-57.5-24.9-124.5-17.2-172.4l11.5-80.4l-293-270c-293-268.1-641.6-557.3-858-708.6l-114.9-80.4l-67,107.2c-157,243.2-260.5,553.5-298.8,879c-53.6,453.9,70.9,949.9,335.1,1348.2c367.7,553.5,1001.6,900.1,1687.2,921.2C7675.7,4810.5,7783,4802.8,7873,4793.2z M2865-519.3c193.4-49.8,530.5-203,628.2-283.4l55.5-46l-172.4-227.9c-189.6-252.8-384.9-484.5-683.7-804.3l-197.3-210.7h-164.7l-164.7,1.9l-107.2,132.1c-160.9,199.2-404.1,442.4-534.3,536.2c-220.2,157-432.8,241.3-509.4,199.2c-153.2-80.4,212.6-534.3,716.3-886.7c185.8-130.2,241.3-180,231.7-201.1c-99.6-226-19.2-469.2,189.6-574.6c90-44,229.8-59.4,314.1-32.5c30.6,9.6,67-23,193.4-178.1c348.6-419.4,741.2-710.5,961.4-710.5c97.7,0,109.2,59.4,40.2,201.1c-99.6,201.1-375.4,471.1-729.7,716.3c-235.6,160.9-216.4,134.1-181.9,260.4c15.3,63.2,23,141.7,17.2,181.9c-11.5,69-9.6,72.8,237.5,300.7c404.1,373.5,984.4,840.8,1018.8,819.7c7.7-5.7,47.9-67,90-137.9c354.3-603.3,381.1-1325.3,70.9-1953.4c-607.1-1244.8-2261.8-1534-3259.5-572.6c-258.5,249-417.5,499.8-528.6,835c-88.1,264.3-114.9,469.2-101.5,745C340.8-1453.9,1034.1-661,1980.2-481C2204.2-438.9,2629.4-458,2865-519.3z M8035.8-519.3c896.3-191.5,1539.8-905.9,1637.4-1817.5c38.3-350.5-26.8-725.8-181.9-1059.1C9387.8-3618,9282.5-3775,9114-3951.2c-245.1-256.6-501.8-419.4-838.8-532.4c-957.6-317.9-2010.9,109.2-2468.6,1003.5c-180,350.5-245.1,651.1-226,1051.4c7.7,172.4,24.9,293,61.3,423.2c51.7,189.6,204.9,524.7,283.4,620.5l44,53.6l229.8-172.4c254.7-191.5,486.4-390.7,800.5-683.7l212.6-197.3v-164.7l-1.9-164.7l-132.2-107.2c-402.2-325.6-664.5-653.1-735.4-923.1c-84.2-310.3,304.5-126.4,674.1,317.9c67,80.4,166.6,212.6,222.2,291.1c168.5,247.1,153.2,233.7,241.3,201.1c42.1-15.3,111.1-26.8,153.2-26.8c105.3-1.9,262.4,74.7,325.6,159c53.6,68.9,111.1,239.4,95.8,285.3c-38.3,132.1-38.3,134.1,160.9,298.8c103.4,86.2,250.9,220.2,327.5,300.7c287.3,302.6,461.5,672.2,346.6,733.5c-132.1,70.9-524.7-262.4-842.6-712.4c-86.2-120.7-168.5-229.8-181.9-241.3c-15.3-13.4-51.7-11.5-116.8,9.6c-59.4,17.2-126.4,23-174.3,15.3l-78.5-11.5l-227.9,247.1c-294.9,319.8-480.7,540.1-676.1,800.5l-155.1,210.7l51.7,44c80.4,65.1,379.2,204.9,540.1,254.7C7346.3-471.4,7729.4-454.2,8035.8-519.3z"/></g></g>
</svg>